<?xml version="1.0" standalone="no"?>
<!DOCTYPE svg PUBLIC "-//W3C//DTD SVG 20010904//EN"
 "http://www.w3.org/TR/2001/REC-SVG-20010904/DTD/svg10.dtd">
<svg version="1.0" xmlns="http://www.w3.org/2000/svg"
 width="1280.000000pt" height="1280.000000pt" viewBox="0 0 1280.000000 1280.000000"
 preserveAspectRatio="xMidYMid meet">
<metadata>
Created by potrace 1.16, written by Peter Selinger 2001-2019
</metadata>
<g transform="translate(0.000000,1280.000000) scale(0.100000,-0.100000)"
fill="#000000" stroke="none">
<path d="M0 6645 l0 -5175 6400 0 6400 0 0 5175 0 5175 -6400 0 -6400 0 0
-5175z m2195 4151 c117 -40 209 -98 301 -191 66 -66 90 -99 128 -176 25 -52
54 -123 63 -159 23 -89 23 -272 -1 -360 -65 -241 -246 -437 -476 -515 -201
-68 -416 -50 -598 51 -370 206 -493 686 -268 1039 106 165 280 288 470 331
100 23 282 13 381 -20z m1636 -232 c152 -45 283 -173 329 -323 72 -229 -40
-490 -254 -590 -193 -91 -411 -53 -562 97 -189 189 -189 498 0 688 99 99 205
143 347 143 50 1 108 -6 140 -15z m-1774 -3184 c302 -39 550 -256 629 -550 22
-81 25 -271 5 -350 -68 -273 -279 -484 -551 -551 -111 -28 -290 -23 -390 11
-304 103 -501 357 -517 670 -10 212 61 400 207 549 84 85 163 137 272 178 122
46 224 59 345 43z m1736 -255 c175 -37 316 -166 368 -337 28 -91 23 -234 -10
-317 -59 -145 -177 -254 -325 -296 -44 -13 -84 -16 -160 -13 -91 4 -109 8
-179 41 -300 140 -379 527 -157 771 124 134 288 188 463 151z m-1638 -3209
c85 -23 210 -86 280 -143 116 -94 213 -246 252 -393 26 -99 23 -273 -5 -375
-73 -255 -275 -454 -532 -522 -100 -27 -284 -24 -380 6 -313 97 -519 355 -537
671 -8 132 14 236 77 365 103 212 302 362 538 405 66 12 236 4 307 -14z m1655
-242 c118 -27 220 -100 291 -208 211 -321 -21 -752 -406 -755 -294 -3 -535
275 -487 562 48 287 317 466 602 401z"/>
</g>
</svg>
